<svg width="14" height="14" viewBox="0 0 14 14" xmlns="http://www.w3.org/2000/svg">
    <path d="M1.473 9.673a.292.292 0 0 1 .274.076l2.5 2.503a.292.292 0 0 1-.117.484l-3.746 1.25a.292.292 0 0 1-.369-.37l1.249-3.75a.292.292 0 0 1 .209-.193zM9.03 2.04a.3.3 0 0 1 .412 0l2.498 2.501a.292.292 0 0 1 0 .413L5.28 11.62a.292.292 0 0 1-.413 0l-2.497-2.5a.292.292 0 0 1 0-.413zM10.489.583a2.107 2.107 0 0 1 2.91 0c.801.805.801 2.106 0 2.91l-.416.42a.292.292 0 0 1-.413 0l-2.497-2.5a.292.292 0 0 1 0-.413z" fill="#3BA2EB" fill-rule="nonzero"/>
</svg>
