<svg width="74" height="37" viewBox="0 0 74 37" xmlns="http://www.w3.org/2000/svg">
    <g fill="#FFF" fill-rule="nonzero">
        <path d="m10.1 16.434-.476.528-3.203-3.095 2.21 4.2-.476.53-4.202-1.963 3.19 3.087-.456.505-3.811-3.684.685-.765 4.26 1.99-2.223-4.252.686-.761 3.816 3.68zm1.476-4.213 1.303-.977-1.98-1.461.677 2.438zm.056 2.7-1.484-5.559.657-.492 4.582 3.227-.629.473-1.303-.961-1.694 1.277.452 1.602-.58.432zm8.176-6.628-1.98-3.86.592-.329 2.445 4.774-.698.384-4.316-2.559 1.972 3.848-.6.333-2.449-4.77.734-.404 4.3 2.583zm2.997-2.134-1.033-3.5.678-.216.992 3.371c.077.257.19.469.343.637.153.168.343.28.564.332.226.052.472.036.747-.052.262-.084.475-.212.64-.384.166-.176.275-.377.32-.609a1.556 1.556 0 0 0-.04-.729l-.997-3.383.678-.216 1.02 3.471c.105.357.113.705.028 1.033a1.847 1.847 0 0 1-.524.881 2.516 2.516 0 0 1-1.004.573c-.323.104-.65.128-.985.076a1.765 1.765 0 0 1-.883-.4c-.25-.213-.431-.513-.544-.885m7.409-2.675.37 2.422-.685.113L29.081.68l3.553-.585.1.653-2.867.468.246 1.626 2.529-.416.097.636-2.525.42zm6.159-.305 1.61.028-.735-2.402-.875 2.374zm-1.525 2.187L36.89 0l.81.016 1.784 5.438-.775-.012-.48-1.582-2.093-.04-.569 1.562-.718-.016zm6.954-2.35a.362.362 0 0 0 .008-.085c.004-.036.008-.064.008-.084.064-.436.21-.84.431-1.213.222-.373.529-.665.924-.873.395-.208.863-.276 1.412-.216.29.048.58.148.87.296.291.148.533.376.735.677.198.3.298.68.298 1.137l-.673-.112c-.02-.385-.145-.685-.371-.91a1.556 1.556 0 0 0-1.06-.436 3.947 3.947 0 0 1-.199-.012 1.475 1.475 0 0 0-.758.24c-.226.149-.415.36-.569.641a2.899 2.899 0 0 0-.314.981 3.714 3.714 0 0 0-.028 1.025c.04.297.117.549.234.753.117.204.262.365.431.48.17.117.36.193.565.233.012-.004.02-.008.028-.008h.016c.46.068.84-.008 1.138-.216.298-.212.516-.545.653-.993l.69.112c-.101.384-.275.72-.517 1.009a2.073 2.073 0 0 1-.879.625 2.245 2.245 0 0 1-1.125.112c-.404-.064-.742-.193-1.017-.385a2.01 2.01 0 0 1-.633-.709 2.852 2.852 0 0 1-.294-.945 5.225 5.225 0 0 1-.004-1.125m7.324-.576.186-.633 4.045 1.285-.185.633-1.69-.537-1.335 4.537-.678-.216 1.34-4.533-1.683-.536zm5.502 5.27 1.657-3.232.626.344-1.594 3.112a1.67 1.67 0 0 0-.193.704c-.008.233.052.449.173.653.121.2.31.372.561.513.242.132.48.2.718.2.238-.004.452-.068.641-.196.19-.133.347-.313.468-.545l1.601-3.123.625.344-1.641 3.203c-.17.329-.4.581-.686.753-.29.172-.613.253-.972.237-.359-.012-.726-.125-1.1-.329a2.214 2.214 0 0 1-.751-.669 1.863 1.863 0 0 1-.351-.933c-.032-.344.04-.688.218-1.037m7.405 3.308 1.388 1.165a.95.95 0 0 0 .463.228c.158.024.303 0 .444-.064a1.08 1.08 0 0 0 .359-.268c.157-.204.238-.416.242-.645.004-.224-.117-.436-.35-.636l-1.433-1.202-1.113 1.422zm-2.323 1.83 3.279-4.2 1.928 1.617c.23.192.407.417.528.669.121.252.174.512.158.785-.02.272-.125.528-.315.768-.355.457-.799.63-1.319.509a.774.774 0 0 1 .133.533 1.35 1.35 0 0 1-.19.528c-.1.168-.25.377-.44.62-.164.221-.277.397-.342.533-.06.133-.06.253.008.36l-.072.097-.678-.569c.064-.176.21-.412.436-.712.225-.3.379-.517.463-.65a.8.8 0 0 0 .11-.488c-.013-.192-.134-.384-.372-.584l-1.375-1.154-1.4 1.794-.54-.456zm8.147 7.031-.456.441-2.617-2.911 3.811-3.684 2.586 2.875-.468.448-2.11-2.346-1.157 1.121 1.948 2.166-.456.44-1.948-2.165-1.275 1.233 2.142 2.382zM71.725 21.788l-.94-.38.392.924-.944.38.944.385-.392.925.944-.384.387.929.392-.93.94.385-.392-.925.944-.384-.944-.38.391-.926-.94.38-.39-.924zM1.492 21.752l-.94-.385.388.925-.94.385.94.38-.387.925.94-.38.39.925.388-.925.944.38-.392-.925.944-.38-.944-.385.392-.925-.944.385-.387-.93zM49.856 28.96V18.147h2.315l3.243 9.113 3.187-9.113h2.31v10.811h-1.645v-9.494l-3.291 9.486h-1.59l-3.432-9.478v9.486zM28.85 28.96l-.016-9.731h6.881c.807 1.377.722 3.52 0 4.925H30.48v1.113h2.105l3.042 3.692h1.557l-3.094-3.692h2.283c1.222-1.778 1.335-5.37.016-7.12h-9.136V28.96h1.598zM13.096 28.96h1.65v-9.731h6.578c.553 1.093.601 3.62 0 4.961h-4.936v1.11h5.63c1.154-2.019 1.162-5.126 0-7.152h-8.93l.008 10.811zM42.625 28.96h1.65V18.147h-1.63zM40.305 32.74v2.426h-3.182l3.182-2.427zm-.14-.75-4.18 3.148v.553h4.316V37h1.218v-1.31h1.15v-.52h-1.15v-3.183h-1.355v.004z"/>
        <g>
            <path d="M23.692 37v-4.169h-.799v-.476l1.497-.36h.528V37h-1.226zM32.598 32.823c0-.14-.06-.244-.174-.312-.113-.068-.29-.1-.528-.1H29.27c-.242 0-.42.032-.532.1a.336.336 0 0 0-.17.312v1.222c0 .144.057.248.166.312.113.064.29.096.536.096h2.626c.238 0 .415-.032.528-.096a.335.335 0 0 0 .174-.312v-1.222zm1.266.077v3.191c0 .28-.181.5-.544.665-.367.164-.86.244-1.477.244h-2.472c-.617 0-1.105-.084-1.46-.244-.36-.16-.537-.385-.537-.665v-.012h1.267v.06c0 .128.064.232.185.304.125.072.299.109.517.109h2.56c.219 0 .392-.037.517-.109.125-.072.186-.172.186-.304v-1.425c-.15.072-.295.124-.448.156-.153.032-.31.052-.472.052h-2.36c-.613 0-1.105-.084-1.472-.245-.367-.164-.552-.384-.552-.664v-1.11c0-.28.181-.5.552-.664.363-.164.86-.244 1.473-.244h2.524c.618 0 1.114.08 1.477.244.355.16.536.38.536.66M49.844 32.823c0-.14-.06-.244-.173-.312-.113-.068-.29-.1-.529-.1h-2.625c-.238 0-.42.032-.533.1a.34.34 0 0 0-.17.312v1.222c0 .144.057.248.166.312.113.064.29.096.537.096h2.625c.238 0 .416-.032.529-.096a.335.335 0 0 0 .173-.312v-1.222zm1.263.077v3.191c0 .276-.182.5-.545.665-.363.164-.859.244-1.476.244h-2.472c-.614 0-1.106-.084-1.465-.244-.355-.16-.536-.385-.536-.665v-.012h1.262v.06c0 .124.065.232.186.304.125.072.298.109.516.109h2.561c.218 0 .392-.037.517-.109.125-.072.185-.172.185-.304v-1.425c-.149.072-.298.124-.448.156-.153.032-.31.052-.471.052h-2.36c-.613 0-1.11-.084-1.472-.245-.367-.164-.553-.384-.553-.664v-1.11c0-.28.186-.5.553-.664.363-.16.859-.244 1.472-.244h2.525c.617 0 1.113.084 1.476.244.363.16.545.384.545.66"/>
        </g>
    </g>
</svg>
