<!-- Generated by IcoMoon.io -->
<svg version="1.1" xmlns="http://www.w3.org/2000/svg" width="640" height="640" viewBox="0 0 640 640">
<title></title>
<g id="icomoon-ignore">
</g>
<path fill="#585b6c" d="M6.4 320c59.516-114.936 177.544-192.128 313.6-192.128s254.084 77.192 312.676 190.169l0.924 1.959c-59.516 114.936-177.544 192.128-313.6 192.128s-254.084-77.192-312.676-190.169l-0.924-1.959zM320 448c70.692 0 128-57.308 128-128s-57.308-128-128-128v0c-70.692 0-128 57.308-128 128s57.308 128 128 128v0zM320 384c-35.346 0-64-28.654-64-64s28.654-64 64-64v0c35.346 0 64 28.654 64 64s-28.654 64-64 64v0z"></path>
</svg>
